<svg width="50" height="57" viewBox="0 0 50 57" fill="none" xmlns="http://www.w3.org/2000/svg">
<path d="M48.5352 47C47.7262 47 47.0703 46.3835 47.0703 45.623C47.0703 43.7502 45.4494 42.2266 43.457 42.2266H22.4609C21.652 42.2266 20.9961 41.6101 20.9961 40.8496C20.9961 40.0892 21.652 39.4727 22.4609 39.4727H43.457C47.0648 39.4727 50 42.2317 50 45.623C50 46.3835 49.3441 47 48.5352 47Z" fill="#3F51B5"/>
<path d="M43.457 39.4727H22.4609V42.2266H43.457C45.4494 42.2266 47.0703 43.7502 47.0703 45.623C47.0703 46.3835 47.7262 47 48.5352 47C49.3441 47 50 46.3835 50 45.623C50 42.2317 47.0648 39.4727 43.457 39.4727Z" fill="#3F51B5"/>
<path d="M22.4609 42.2266C10.0467 42.2266 0 32.7836 0 21.1133C0 9.44388 10.0457 0 22.4609 0C34.8752 0 44.9219 9.44296 44.9219 21.1133C44.9219 32.7827 34.8762 42.2266 22.4609 42.2266Z" fill="#F7F8FF"/>
<path d="M22.4609 0V42.2266C34.8762 42.2266 44.9219 32.7827 44.9219 21.1133C44.9219 9.44296 34.8752 0 22.4609 0Z" fill="#EEEFFF"/>
<path d="M22.4609 17.3491C18.8968 17.3491 15.9972 14.6234 15.9972 11.2732C15.9972 7.9229 18.8968 5.19727 22.4609 5.19727C26.0251 5.19727 28.9247 7.9229 28.9247 11.2732C28.9247 14.6234 26.0251 17.3491 22.4609 17.3491Z" fill="#3F51B5"/>
<path d="M11.9891 27.1891C8.4249 27.1891 5.52539 24.4635 5.52539 21.1133C5.52539 17.7631 8.425 15.0374 11.9891 15.0374C15.5531 15.0374 18.4528 17.7631 18.4528 21.1133C18.4528 24.4635 15.5531 27.1891 11.9891 27.1891Z" fill="#3F51B5"/>
<path d="M22.4609 37.0293C18.8968 37.0293 15.9972 34.3037 15.9972 30.9534C15.9972 27.6032 18.8968 24.8776 22.4609 24.8776C26.0251 24.8776 28.9247 27.6032 28.9247 30.9534C28.9247 34.3037 26.0251 37.0293 22.4609 37.0293Z" fill="#3F51B5"/>
<path d="M32.9328 27.1891C29.3686 27.1891 26.469 24.4635 26.469 21.1133C26.469 17.7631 29.3686 15.0374 32.9328 15.0374C36.497 15.0374 39.3965 17.7631 39.3965 21.1133C39.3965 24.4635 36.497 27.1891 32.9328 27.1891Z" fill="#3F51B5"/>
<path d="M20.2508 21.1133C20.2508 19.9677 21.2422 19.0358 22.4609 19.0358C23.6797 19.0358 24.6711 19.9677 24.6711 21.1133C24.6711 22.2588 23.6796 23.1907 22.4609 23.1907C21.2423 23.1907 20.2508 22.2588 20.2508 21.1133Z" fill="#EEEFFF"/>
<path d="M22.4609 5.19717V17.3491C26.0251 17.3491 28.9247 14.6234 28.9247 11.2732C28.9247 7.9229 26.0251 5.19717 22.4609 5.19717Z" fill="#3F51B5"/>
<path d="M22.4609 24.8775V37.0293C26.0251 37.0293 28.9247 34.3037 28.9247 30.9534C28.9247 27.6032 26.0251 24.8775 22.4609 24.8775Z" fill="#3F51B5"/>
<path d="M32.9328 27.1891C29.3686 27.1891 26.469 24.4635 26.469 21.1133C26.469 17.7631 29.3686 15.0374 32.9328 15.0374C36.497 15.0374 39.3965 17.7631 39.3965 21.1133C39.3965 24.4635 36.497 27.1891 32.9328 27.1891Z" fill="#3F51B5"/>
<path d="M22.4609 19.0357V23.1907C23.6796 23.1907 24.6711 22.2588 24.6711 21.1133C24.6711 19.9678 23.6796 19.0357 22.4609 19.0357Z" fill="#CFCFED"/>
<path d="M3.97875 49.8362L4.27125 55H3.645L3.48375 52.3037C3.47625 52.1212 3.46875 51.9362 3.46125 51.7487C3.45375 51.5612 3.44875 51.3812 3.44625 51.2087C3.44375 51.0362 3.4425 50.8825 3.4425 50.7475C3.4425 50.6125 3.4425 50.5075 3.4425 50.4325L2.5725 54.0737H1.92L0.98625 50.4325C0.98875 50.505 0.99125 50.6125 0.99375 50.755C0.99625 50.895 0.9975 51.0537 0.9975 51.2313C1 51.4087 0.99875 51.5912 0.99375 51.7787C0.99125 51.9637 0.98625 52.1362 0.97875 52.2962L0.84 55H0.22875L0.52125 49.8362H1.42875L2.265 53.3725L3.06375 49.8362H3.97875ZM6.75457 50.9687C7.12707 50.9687 7.43832 51.0537 7.68832 51.2237C7.94082 51.3912 8.12957 51.6287 8.25457 51.9362C8.38207 52.2437 8.44582 52.6062 8.44582 53.0237C8.44582 53.4262 8.38082 53.7825 8.25082 54.0925C8.12082 54.4025 7.92957 54.6462 7.67707 54.8237C7.42707 54.9988 7.11707 55.0863 6.74707 55.0863C6.37707 55.0863 6.06582 55.0013 5.81332 54.8312C5.56082 54.6612 5.36957 54.4225 5.23957 54.115C5.11207 53.805 5.04832 53.4437 5.04832 53.0312C5.04832 52.6237 5.11332 52.265 5.24332 51.955C5.37332 51.645 5.56457 51.4037 5.81707 51.2313C6.07207 51.0562 6.38457 50.9687 6.75457 50.9687ZM6.75457 51.4825C6.41457 51.4825 6.15707 51.6087 5.98207 51.8612C5.80957 52.1112 5.72332 52.5012 5.72332 53.0312C5.72332 53.5512 5.80832 53.9375 5.97832 54.19C6.15082 54.4425 6.40707 54.5687 6.74707 54.5687C7.08707 54.5687 7.34207 54.4425 7.51207 54.19C7.68457 53.9375 7.77082 53.5487 7.77082 53.0237C7.77082 52.4987 7.68582 52.1112 7.51582 51.8612C7.34582 51.6087 7.09207 51.4825 6.75457 51.4825ZM13.0404 51.0512L11.6041 55H10.8729L9.44789 51.0512H10.1154L11.2591 54.4262L12.3879 51.0512H13.0404ZM16.2437 51.0512V54.5012H17.3575V55H14.395V54.5012H15.6137V51.55H14.4325V51.0512H16.2437ZM15.7412 49.2025C15.8812 49.2025 15.9925 49.245 16.075 49.33C16.16 49.415 16.2025 49.5187 16.2025 49.6412C16.2025 49.7687 16.16 49.8762 16.075 49.9637C15.9925 50.0487 15.8812 50.0912 15.7412 50.0912C15.6087 50.0912 15.5 50.0487 15.415 49.9637C15.33 49.8762 15.2875 49.7687 15.2875 49.6412C15.2875 49.5187 15.33 49.415 15.415 49.33C15.5 49.245 15.6087 49.2025 15.7412 49.2025ZM19.237 53.2487C19.2495 53.5537 19.3083 53.8037 19.4133 53.9987C19.5183 54.1912 19.657 54.3337 19.8295 54.4262C20.002 54.5162 20.1895 54.5612 20.392 54.5612C20.5945 54.5612 20.777 54.5312 20.9395 54.4712C21.1045 54.4112 21.2733 54.3225 21.4458 54.205L21.742 54.6212C21.557 54.7662 21.3458 54.88 21.1083 54.9625C20.8733 55.045 20.632 55.0863 20.3845 55.0863C20.002 55.0863 19.6758 55 19.4058 54.8275C19.1358 54.655 18.9295 54.415 18.787 54.1075C18.647 53.7975 18.577 53.4387 18.577 53.0312C18.577 52.6312 18.6483 52.2762 18.7908 51.9662C18.9333 51.6562 19.1333 51.4125 19.3908 51.235C19.6483 51.0575 19.952 50.9687 20.302 50.9687C20.6345 50.9687 20.9208 51.0475 21.1608 51.205C21.4008 51.36 21.5845 51.5825 21.712 51.8725C21.842 52.16 21.907 52.5037 21.907 52.9037C21.907 52.9712 21.9058 53.035 21.9033 53.095C21.9008 53.1525 21.897 53.2037 21.892 53.2487H19.237ZM20.3095 51.4862C20.017 51.4862 19.772 51.59 19.5745 51.7975C19.3795 52.005 19.2683 52.3262 19.2408 52.7612H21.2995C21.292 52.3387 21.1995 52.0212 21.022 51.8087C20.8445 51.5937 20.607 51.4862 20.3095 51.4862ZM29.2474 54.2612L30.6424 49.8362H31.2987L29.5699 55H28.8949L27.1662 49.8362H27.8674L29.2474 54.2612ZM34.232 51.0512V54.5012H35.3457V55H32.3832V54.5012H33.602V51.55H32.4207V51.0512H34.232ZM33.7295 49.2025C33.8695 49.2025 33.9807 49.245 34.0632 49.33C34.1482 49.415 34.1907 49.5187 34.1907 49.6412C34.1907 49.7687 34.1482 49.8762 34.0632 49.9637C33.9807 50.0487 33.8695 50.0912 33.7295 50.0912C33.597 50.0912 33.4882 50.0487 33.4032 49.9637C33.3182 49.8762 33.2757 49.7687 33.2757 49.6412C33.2757 49.5187 33.3182 49.415 33.4032 49.33C33.4882 49.245 33.597 49.2025 33.7295 49.2025ZM38.2678 49.4612V54.025C38.2678 54.22 38.3278 54.3587 38.4478 54.4412C38.5703 54.5212 38.7278 54.5612 38.9203 54.5612C39.0403 54.5612 39.1541 54.5487 39.2616 54.5237C39.3691 54.4987 39.4766 54.465 39.5841 54.4225L39.7528 54.8837C39.6453 54.9362 39.5116 54.9825 39.3516 55.0225C39.1941 55.065 39.0153 55.0863 38.8153 55.0863C38.4653 55.0863 38.1816 54.99 37.9641 54.7975C37.7466 54.6025 37.6378 54.3337 37.6378 53.9912V49.96H36.4266V49.4612H38.2678ZM42.7649 49.4612V54.025C42.7649 54.22 42.8249 54.3587 42.9449 54.4412C43.0674 54.5212 43.2249 54.5612 43.4174 54.5612C43.5374 54.5612 43.6511 54.5487 43.7586 54.5237C43.8661 54.4987 43.9736 54.465 44.0811 54.4225L44.2499 54.8837C44.1424 54.9362 44.0086 54.9825 43.8486 55.0225C43.6911 55.065 43.5124 55.0863 43.3124 55.0863C42.9624 55.0863 42.6786 54.99 42.4611 54.7975C42.2436 54.6025 42.1349 54.3337 42.1349 53.9912V49.96H40.9236V49.4612H42.7649ZM48.552 54.1375C48.552 54.295 48.5782 54.41 48.6307 54.4825C48.6832 54.555 48.7645 54.6087 48.8745 54.6437L48.7207 55.0863C48.5507 55.0638 48.402 55.01 48.2745 54.925C48.147 54.8375 48.0545 54.7062 47.997 54.5312C47.8545 54.7137 47.677 54.8525 47.4645 54.9475C47.252 55.04 47.017 55.0863 46.7595 55.0863C46.3645 55.0863 46.0532 54.975 45.8257 54.7525C45.5982 54.53 45.4845 54.235 45.4845 53.8675C45.4845 53.46 45.6432 53.1475 45.9607 52.93C46.2782 52.7125 46.737 52.6037 47.337 52.6037H47.9182V52.2737C47.9182 51.9887 47.8345 51.7875 47.667 51.67C47.502 51.55 47.272 51.49 46.977 51.49C46.847 51.49 46.6945 51.5062 46.5195 51.5387C46.3445 51.5687 46.1545 51.62 45.9495 51.6925L45.7845 51.2162C46.027 51.1262 46.2545 51.0625 46.467 51.025C46.6795 50.9875 46.882 50.9687 47.0745 50.9687C47.567 50.9687 47.9357 51.0837 48.1807 51.3137C48.4282 51.5412 48.552 51.8512 48.552 52.2437V54.1375ZM46.9207 54.6062C47.1157 54.6062 47.302 54.5575 47.4795 54.46C47.657 54.36 47.8032 54.2225 47.9182 54.0475V53.0312H47.3482C46.9132 53.0312 46.6057 53.1062 46.4257 53.2562C46.2482 53.4062 46.1595 53.6075 46.1595 53.86C46.1595 54.105 46.222 54.2912 46.347 54.4187C46.4745 54.5437 46.6657 54.6062 46.9207 54.6062Z" fill="white"/>
</svg>
